<svg width="496" height="126" viewBox="0 0 496 126" fill="none" xmlns="http://www.w3.org/2000/svg">
<g clip-path="url(#clip0_5769_45264)">
<path d="M215.77 20.76C214.22 21.14 212.72 21.71 211.3 22.45C209.97 23.14 208.74 24.01 207.62 25.01C207.45 25.17 207.27 25.33 207.1 25.5L206.63 20.15H198.61V67.91H207.78V44.14C207.74 41.87 208.08 39.62 208.8 37.47C209.39 35.73 210.31 34.17 211.54 32.83C212.7 31.6 214.14 30.64 215.71 30.05C217.49 29.38 219.36 29.07 221.26 29.08H227.18V20.15H220.98C219.24 20.13 217.46 20.34 215.75 20.77" fill="#1B3359"/>
<path d="M270.84 25.61C270.53 25.3 270.21 24.99 269.89 24.7C268.59 23.53 267.15 22.51 265.62 21.68C264.02 20.82 262.33 20.14 260.58 19.66C258.7 19.15 256.77 18.95 254.83 18.91C248.33 18.86 242.07 21.53 237.64 26.29C235.49 28.62 233.82 31.3 232.69 34.27C231.49 37.39 230.9 40.67 230.93 44.02C230.9 47.37 231.5 50.66 232.69 53.79C233.82 56.77 235.49 59.45 237.65 61.78C239.81 64.08 242.35 65.89 245.22 67.16C248.19 68.47 251.32 69.13 254.52 69.13H254.77C256.69 69.09 258.62 68.9 260.49 68.4C263.93 67.49 267.17 65.74 269.83 63.37C270.16 63.07 270.49 62.76 270.81 62.44L271.16 67.9H279.46V20.14H271.16L270.84 25.61ZM266.05 32.36C267.47 33.86 268.57 35.59 269.34 37.52C270.17 39.59 270.58 41.78 270.56 44.04C270.59 46.29 270.18 48.49 269.36 50.59C268.6 52.52 267.5 54.25 266.08 55.75C264.7 57.2 263.08 58.34 261.26 59.13C259.39 59.95 257.39 60.32 255.33 60.34C253.37 60.4 251.32 59.94 249.44 59.11C247.62 58.31 245.99 57.17 244.62 55.73C243.21 54.24 242.11 52.51 241.36 50.59C240.54 48.49 240.13 46.29 240.16 44.04V43.21C240.24 41.25 240.64 39.34 241.37 37.51C242.12 35.59 243.21 33.85 244.61 32.36C245.98 30.91 247.6 29.78 249.41 28.99C253.18 27.36 257.49 27.35 261.25 28.99C263.07 29.79 264.7 30.92 266.07 32.37" fill="#1B3359"/>
<path d="M333.75 26.3C329.35 21.53 323.11 18.97 316.68 18.91C312.96 18.96 309.33 19.78 306.07 21.5C304.55 22.3 303.12 23.29 301.84 24.43C301.58 24.66 301.32 24.9 301.07 25.14V0H291.85V67.91H300.15L300.47 62.48C300.79 62.8 301.11 63.1 301.45 63.4C302.75 64.56 304.19 65.58 305.74 66.42C307.33 67.28 309.03 67.96 310.79 68.44C312.64 68.94 314.55 69.2 316.45 69.2H316.76C323.15 69.2 329.3 66.52 333.68 61.81C335.84 59.47 337.51 56.78 338.65 53.81C339.86 50.68 340.46 47.39 340.44 44.03C340.47 40.69 339.88 37.41 338.68 34.28C337.55 31.32 335.89 28.64 333.75 26.3ZM331.23 44.01V44.84C331.16 46.81 330.75 48.74 330.03 50.58C329.28 52.51 328.17 54.23 326.75 55.72C325.37 57.16 323.74 58.3 321.92 59.1C316.26 61.57 309.56 60.21 305.28 55.75C303.87 54.25 302.77 52.51 302.02 50.59C300.41 46.37 300.41 41.72 302.02 37.5C302.77 35.58 303.88 33.85 305.29 32.37C306.68 30.93 308.3 29.79 310.12 28.98C312 28.17 314.02 27.76 316.05 27.76C318.08 27.76 320.08 28.17 321.96 28.98C323.78 29.79 325.4 30.93 326.77 32.36C328.18 33.85 329.28 35.58 330.03 37.51C330.85 39.59 331.25 41.78 331.23 44.01Z" fill="#1B3359"/>
<path d="M386.53 25.61C386.22 25.3 385.9 24.99 385.58 24.7C384.28 23.53 382.84 22.51 381.31 21.68C379.71 20.82 378.02 20.14 376.27 19.66C374.39 19.15 372.45 18.84 370.52 18.91C364.02 18.86 357.77 21.53 353.33 26.29C351.18 28.62 349.51 31.3 348.38 34.27C347.18 37.39 346.59 40.67 346.61 44.02C346.59 47.37 347.18 50.66 348.37 53.79C349.5 56.77 351.17 59.45 353.33 61.78C355.49 64.08 358.04 65.88 360.9 67.16C363.86 68.47 367 69.13 370.2 69.13H370.45C372.35 69.16 374.3 68.9 376.17 68.4C379.62 67.49 382.85 65.74 385.51 63.37C385.84 63.07 386.17 62.76 386.49 62.44L386.84 67.9H395.14V20.14H386.84L386.52 25.61H386.53ZM381.74 32.36C383.15 33.85 384.26 35.59 385.03 37.51C385.86 39.59 386.27 41.77 386.25 44.03C386.27 46.28 385.87 48.48 385.05 50.58C384.29 52.51 383.19 54.24 381.77 55.74C380.39 57.19 378.77 58.33 376.95 59.12C375.08 59.94 373.08 60.31 371.02 60.33C368.99 60.29 367.01 59.93 365.13 59.1C363.31 58.3 361.68 57.16 360.31 55.72C358.9 54.23 357.8 52.5 357.05 50.58C356.23 48.49 355.82 46.28 355.85 44.03V44C355.83 41.76 356.24 39.58 357.06 37.5C357.81 35.58 358.9 33.84 360.3 32.35C361.67 30.9 363.29 29.77 365.1 28.98C368.86 27.35 373.18 27.35 376.94 28.98C378.76 29.78 380.39 30.91 381.76 32.36" fill="#1B3359"/>
<path d="M439.51 45.16C438.58 44.13 437.48 43.28 436.27 42.62C435.08 41.97 433.83 41.43 432.55 41C431.26 40.57 429.93 40.22 428.57 39.98C427.26 39.74 425.99 39.53 424.69 39.34C422.93 39.18 421.16 38.92 419.41 38.57C418.2 38.34 417.03 37.95 415.91 37.39C415.2 37.04 414.58 36.51 414.16 35.92C413.76 35.3 413.57 34.58 413.59 33.79C413.59 33 413.75 32.23 414.05 31.5C414.37 30.74 414.88 30.07 415.5 29.55C416.35 28.86 417.3 28.35 418.34 28.05C419.83 27.61 421.36 27.4 422.96 27.45C424.12 27.46 425.32 27.59 426.48 27.92C427.43 28.19 428.31 28.62 429.11 29.2C429.78 29.69 430.35 30.34 430.74 31.06C431.14 31.79 431.36 32.62 431.4 33.44L431.46 34.81H440.6L440.62 33.4C440.68 29.34 438.92 25.54 435.81 22.95C434.19 21.62 432.36 20.61 430.37 19.96C428.1 19.22 425.74 18.89 423.41 18.9C420.5 18.81 417.61 19.22 414.82 20.06C412.62 20.73 410.62 21.83 408.86 23.33C407.35 24.65 406.18 26.34 405.45 28.22C404.76 30.03 404.42 31.93 404.43 33.8C404.32 36.13 404.9 38.42 406.13 40.47C407.19 42.09 408.65 43.46 410.34 44.41C412.01 45.35 413.82 46.04 415.69 46.44C417.52 46.84 419.3 47.15 420.91 47.36C422.97 47.69 424.75 48.03 426.37 48.4C427.72 48.69 429.03 49.15 430.27 49.75C431.13 50.16 431.88 50.78 432.43 51.49C432.92 52.2 433.18 53.07 433.14 54C433.16 55.85 432.21 57.6 430.6 58.61C428.74 59.89 425.8 60.54 421.84 60.54C420.54 60.51 419.29 60.34 418.06 59.93C416.95 59.56 415.9 59.01 414.95 58.31C414.13 57.7 413.45 56.95 412.92 56.07C412.47 55.32 412.22 54.47 412.2 53.59L412.16 52.21L403.09 52.14V53.59C403.12 55.55 403.58 57.53 404.42 59.28C405.32 61.19 406.56 62.87 408.13 64.28C409.84 65.81 411.8 67 413.95 67.82C416.32 68.72 418.8 69.17 421.3 69.17H421.63C424.51 69.22 427.38 68.88 430.18 68.2C432.56 67.64 434.79 66.65 436.81 65.25C438.61 63.98 440.1 62.27 441.12 60.27C442.12 58.19 442.63 55.87 442.58 53.61C442.62 51.96 442.34 50.34 441.76 48.77C441.24 47.43 440.5 46.22 439.54 45.15" fill="#1B3359"/>
<path d="M99 0V9.97H119.73V69.19H129.79V9.97H150.52V0H99Z" fill="#1B3359"/>
<path d="M187.59 34.2C186.78 32.18 185.89 30.71 185.43 29.98C184.21 28.06 183.01 26.76 182.49 26.22C180.28 23.92 177.69 22.12 174.77 20.85C168.66 18.25 161.65 18.24 155.53 20.85C152.62 22.13 150.02 23.94 147.81 26.24C145.61 28.56 143.89 31.24 142.71 34.21C141.47 37.33 140.85 40.61 140.88 43.97C140.86 47.34 141.47 50.64 142.71 53.76C143.89 56.75 145.6 59.44 147.82 61.76C150.02 64.06 152.62 65.88 155.55 67.16C158.61 68.47 161.88 69.12 165.16 69.12C167.68 69.12 170.21 68.73 172.66 67.95C174.93 67.2 177.08 66.13 179.05 64.74C180.95 63.4 182.64 61.78 184.06 59.93C185.45 58.13 186.59 56.15 187.45 54.04L188.25 52.08H178.33L177.93 52.85C177.33 53.99 176.59 55.06 175.71 56.01C174.84 56.95 173.86 57.77 172.78 58.43C171.67 59.11 170.47 59.62 169.23 59.97C167.94 60.33 166.6 60.52 165.25 60.52C163.41 60.52 161.6 60.19 159.88 59.49C158.15 58.81 156.58 57.83 155.22 56.59C153.78 55.28 152.61 53.74 151.73 52.01C151 50.59 150.49 49.09 150.2 47.53H189.17C189.25 47.04 189.34 46.42 189.4 45.7C189.42 45.42 189.49 44.51 189.47 43.3C189.45 42.06 189.34 41.06 189.26 40.43C189.24 40.25 189.16 39.66 189.03 38.97C188.8 37.78 188.4 36.11 187.63 34.19H187.59V34.2ZM150.36 39.61C150.68 38.23 151.16 36.9 151.81 35.63C152.65 33.98 153.75 32.5 155.1 31.25C156.44 30.02 157.96 29.05 159.64 28.37C161.41 27.66 163.26 27.28 165.17 27.33H165.19C168.92 27.33 172.4 28.7 175.08 31.26C176.41 32.54 177.51 34.03 178.35 35.69C178.99 36.94 179.47 38.26 179.79 39.62H150.36V39.61Z" fill="#1B3359"/>
<path d="M39.64 0L0 69.21H15.85L39.64 28.03V0Z" fill="url(#paint0_linear_5769_45264)"/>
<path d="M493.62 34.2C492.81 32.18 491.92 30.71 491.46 29.98C490.24 28.06 489.04 26.76 488.52 26.22C486.31 23.92 483.72 22.12 480.8 20.85C474.69 18.25 467.68 18.24 461.56 20.85C458.65 22.13 456.05 23.94 453.84 26.24C451.64 28.56 449.92 31.24 448.74 34.21C447.5 37.33 446.88 40.61 446.91 43.97C446.89 47.34 447.5 50.64 448.74 53.76C449.92 56.75 451.63 59.44 453.85 61.76C456.05 64.06 458.65 65.88 461.58 67.16C464.64 68.47 467.91 69.12 471.19 69.12C473.71 69.12 476.24 68.73 478.69 67.95C480.96 67.2 483.11 66.13 485.08 64.74C486.98 63.4 488.67 61.78 490.09 59.93C491.48 58.13 492.62 56.15 493.48 54.04L494.28 52.08H484.36L483.96 52.85C483.36 53.99 482.62 55.06 481.74 56.01C480.87 56.95 479.89 57.77 478.81 58.43C477.7 59.11 476.5 59.62 475.26 59.97C473.97 60.33 472.63 60.52 471.28 60.52C469.44 60.52 467.63 60.19 465.91 59.49C464.18 58.81 462.61 57.83 461.25 56.59C459.81 55.28 458.64 53.74 457.76 52.01C457.03 50.59 456.52 49.09 456.23 47.53H495.2C495.28 47.04 495.37 46.42 495.43 45.7C495.45 45.42 495.52 44.51 495.5 43.3C495.48 42.06 495.37 41.06 495.29 40.43C495.27 40.25 495.19 39.66 495.06 38.97C494.83 37.78 494.43 36.11 493.66 34.19H493.62V34.2ZM456.39 39.61C456.71 38.23 457.19 36.9 457.84 35.63C458.68 33.98 459.78 32.5 461.13 31.25C462.47 30.02 463.99 29.05 465.67 28.37C467.44 27.66 469.29 27.28 471.2 27.33H471.22C474.95 27.33 478.43 28.7 481.11 31.26C482.44 32.54 483.54 34.03 484.38 35.69C485.02 36.94 485.5 38.26 485.82 39.62H456.39V39.61Z" fill="#1B3359"/>
<path d="M60.81 69.2101H26.71L43.76 39.6801L60.81 69.2101Z" fill="url(#paint1_linear_5769_45264)"/>
<path d="M71.68 69.21H87.53L58.6 19.24L50.54 33.27L71.68 69.21Z" fill="url(#paint2_linear_5769_45264)"/>
<path d="M194.516 114.935H194.806L204.576 86.7653H214.806V124.705H208.196L208.366 93.7253H208.196L197.276 124.705H191.876L181.016 93.7253H180.846L181.016 124.705H174.406V86.7653H184.696L194.526 114.935H194.516Z" fill="#007244"/>
<path d="M247.736 109.415C247.736 110.455 247.616 111.315 247.396 112.805H227.856C228.376 117.465 231.876 120.225 236.826 120.225C240.386 120.225 243.896 118.905 246.136 116.545V122.695C243.436 124.475 239.926 125.285 236.306 125.285C227.336 125.285 221.366 119.765 221.366 111.145C221.366 103.905 226.196 96.8352 235.106 96.8352C242.866 96.8352 247.756 102.005 247.756 109.425L247.736 109.415ZM235.316 101.775C231.176 101.775 228.246 104.645 227.956 108.675H241.746C242.036 104.765 239.446 101.775 235.306 101.775H235.316Z" fill="#007244"/>
<path d="M254.406 105.565C254.406 103.155 254.176 100.275 253.776 97.4054H260.386V103.615H260.966C262.056 99.1354 265.276 97.0054 268.666 97.0054C269.926 97.0054 271.256 97.2954 272.406 97.9254V104.425C270.906 103.385 269.586 102.925 267.926 102.925C263.616 102.925 261.026 106.205 261.026 111.835V116.495C261.026 119.545 261.146 122.075 261.606 124.715H254.426V105.575L254.406 105.565Z" fill="#007244"/>
<path d="M289.867 125.285C281.757 125.285 275.097 119.825 275.097 110.975C275.097 102.645 280.957 96.8352 289.637 96.8352C292.967 96.8352 295.957 97.6952 298.547 99.4252V106.325C296.307 103.915 293.257 102.475 289.987 102.475C284.817 102.475 281.767 106.155 281.767 111.095C281.767 116.035 285.047 119.655 290.277 119.655C293.497 119.655 296.537 118.215 298.787 115.745V122.705C296.257 124.425 293.097 125.295 289.877 125.295L289.867 125.285Z" fill="#007244"/>
<path d="M312.286 125.285C307.226 125.285 303.666 122.185 303.666 117.815C303.666 113.445 307.286 110.625 314.296 109.425C318.896 108.565 320.906 107.645 320.906 105.285C320.906 103.105 319.066 101.725 315.906 101.725C312.346 101.725 308.776 103.445 305.676 106.435V100.225C308.436 98.0952 312.516 96.8352 316.536 96.8352C323.266 96.8352 327.516 100.455 327.516 106.265V116.495C327.516 119.365 327.916 122.585 328.496 124.715H321.716L321.316 120.635H320.746C318.566 123.855 315.686 125.295 312.296 125.295L312.286 125.285ZM315.446 113.385C311.826 114.305 310.276 115.455 310.276 117.405C310.276 119.355 311.826 120.565 314.246 120.565C318.036 120.565 320.966 117.745 320.966 113.145V110.555C319.706 111.995 317.976 112.795 315.446 113.375V113.385Z" fill="#007244"/>
<path d="M346.246 125.285C340.846 125.285 337.336 121.955 337.336 116.265V102.525H332.626V98.2152H334.126C338.146 98.2152 339.526 95.6852 339.986 89.4752H343.956V97.4052H352.236V102.525H343.956V115.405C343.956 118.455 345.336 120.005 347.806 120.005C349.526 120.005 351.026 119.315 352.466 117.825V123.575C350.976 124.605 348.676 125.295 346.256 125.295L346.246 125.285Z" fill="#007244"/>
<path d="M383.666 111.085C383.666 119.415 378.086 125.285 369.696 125.285C361.306 125.285 355.666 119.425 355.666 111.085C355.666 102.745 361.246 96.8352 369.696 96.8352C378.146 96.8352 383.666 102.755 383.666 111.085ZM362.166 111.085C362.166 116.375 365.096 119.825 369.696 119.825C374.296 119.825 377.166 116.375 377.166 111.085C377.166 105.795 374.236 102.345 369.696 102.345C365.156 102.345 362.166 105.795 362.166 111.085Z" fill="#007244"/>
<path d="M390.567 105.565C390.567 103.155 390.337 100.275 389.937 97.4054H396.547V103.615H397.127C398.217 99.1354 401.437 97.0054 404.827 97.0054C406.087 97.0054 407.417 97.2954 408.567 97.9254V104.425C407.067 103.385 405.747 102.925 404.087 102.925C399.777 102.925 397.187 106.205 397.187 111.835V116.495C397.187 119.545 397.307 122.075 397.767 124.715H390.587V105.575L390.567 105.565Z" fill="#007244"/>
<path d="M437.616 109.341H443.821L447.495 114.105L450.118 117.207L456.414 125.295H449.767L445.483 119.866L443.654 117.281L437.616 109.341ZM457.319 103.136C457.319 107.211 456.556 110.701 455.029 113.606C453.515 116.499 451.447 118.715 448.825 120.254C446.215 121.793 443.254 122.562 439.943 122.562C436.631 122.562 433.664 121.793 431.042 120.254C428.432 118.703 426.364 116.481 424.838 113.588C423.324 110.682 422.566 107.199 422.566 103.136C422.566 99.0613 423.324 95.5774 424.838 92.6844C426.364 89.7791 428.432 87.557 431.042 86.0182C433.664 84.4794 436.631 83.71 439.943 83.71C443.254 83.71 446.215 84.4794 448.825 86.0182C451.447 87.557 453.515 89.7791 455.029 92.6844C456.556 95.5774 457.319 99.0613 457.319 103.136ZM450.431 103.136C450.431 100.268 449.982 97.8487 449.083 95.879C448.197 93.897 446.966 92.4013 445.39 91.3918C443.815 90.37 441.999 89.8591 439.943 89.8591C437.887 89.8591 436.071 90.37 434.495 91.3918C432.92 92.4013 431.682 93.897 430.784 95.879C429.897 97.8487 429.454 100.268 429.454 103.136C429.454 106.004 429.897 108.43 430.784 110.412C431.682 112.381 432.92 113.877 434.495 114.899C436.071 115.908 437.887 116.413 439.943 116.413C441.999 116.413 443.815 115.908 445.39 114.899C446.966 113.877 448.197 112.381 449.083 110.412C449.982 108.43 450.431 106.004 450.431 103.136Z" fill="#007244"/>
<path d="M467.712 122.045H460.4L473.714 84.227H482.171L495.503 122.045H488.191L478.09 91.9827H477.795L467.712 122.045ZM467.952 107.217H487.895V112.72H467.952V107.217Z" fill="#007244"/>
</g>
<defs>
<linearGradient id="paint0_linear_5769_45264" x1="5.83" y1="72.58" x2="45.71" y2="3.5" gradientUnits="userSpaceOnUse">
<stop stop-color="#F69B22"/>
<stop offset="0.18" stop-color="#F6911D"/>
<stop offset="0.48" stop-color="#F67812"/>
<stop offset="0.84" stop-color="#F75200"/>
</linearGradient>
<linearGradient id="paint1_linear_5769_45264" x1="26.71" y1="54.4401" x2="60.81" y2="54.4401" gradientUnits="userSpaceOnUse">
<stop stop-color="#07B2ED"/>
<stop offset="0.22" stop-color="#07A9E7"/>
<stop offset="0.59" stop-color="#0790D7"/>
<stop offset="1" stop-color="#086EC1"/>
</linearGradient>
<linearGradient id="paint2_linear_5769_45264" x1="52.57" y1="22.72" x2="81.44" y2="72.73" gradientUnits="userSpaceOnUse">
<stop stop-color="#9ED84C"/>
<stop offset="0.85" stop-color="#66B600"/>
</linearGradient>
<clipPath id="clip0_5769_45264">
<rect width="495.504" height="125.295" fill="white"/>
</clipPath>
</defs>
</svg>
