<svg width="496" height="126" viewBox="0 0 496 126" fill="none" xmlns="http://www.w3.org/2000/svg">
<g clip-path="url(#clip0_5951_45269)">
<path d="M215.77 20.76C214.22 21.14 212.72 21.71 211.3 22.45C209.97 23.14 208.74 24.01 207.62 25.01C207.45 25.17 207.27 25.33 207.1 25.5L206.63 20.15H198.61V67.91H207.78V44.14C207.74 41.87 208.08 39.62 208.8 37.47C209.39 35.73 210.31 34.17 211.54 32.83C212.7 31.6 214.14 30.64 215.71 30.05C217.49 29.38 219.36 29.07 221.26 29.08H227.18V20.15H220.98C219.24 20.13 217.46 20.34 215.75 20.77" fill="white"/>
<path d="M270.84 25.6101C270.53 25.3001 270.21 24.9901 269.89 24.7001C268.59 23.5301 267.15 22.5101 265.62 21.6801C264.02 20.8201 262.33 20.1401 260.58 19.6601C258.7 19.1501 256.77 18.9501 254.83 18.9101C248.33 18.8601 242.07 21.5301 237.64 26.2901C235.49 28.6201 233.82 31.3001 232.69 34.2701C231.49 37.3901 230.9 40.6701 230.93 44.0201C230.9 47.3701 231.5 50.6601 232.69 53.7901C233.82 56.7701 235.49 59.4501 237.65 61.7801C239.81 64.0801 242.35 65.8901 245.22 67.1601C248.19 68.4701 251.32 69.1301 254.52 69.1301H254.77C256.69 69.0901 258.62 68.9001 260.49 68.4001C263.93 67.4901 267.17 65.7401 269.83 63.3701C270.16 63.0701 270.49 62.7601 270.81 62.4401L271.16 67.9001H279.46V20.1401H271.16L270.84 25.6101ZM266.05 32.3601C267.47 33.8601 268.57 35.5901 269.34 37.5201C270.17 39.5901 270.58 41.7801 270.56 44.0401C270.59 46.2901 270.18 48.4901 269.36 50.5901C268.6 52.5201 267.5 54.2501 266.08 55.7501C264.7 57.2001 263.08 58.3401 261.26 59.1301C259.39 59.9501 257.39 60.3201 255.33 60.3401C253.37 60.4001 251.32 59.9401 249.44 59.1101C247.62 58.3101 245.99 57.1701 244.62 55.7301C243.21 54.2401 242.11 52.5101 241.36 50.5901C240.54 48.4901 240.13 46.2901 240.16 44.0401V43.2101C240.24 41.2501 240.64 39.3401 241.37 37.5101C242.12 35.5901 243.21 33.8501 244.61 32.3601C245.98 30.9101 247.6 29.7801 249.41 28.9901C253.18 27.3601 257.49 27.3501 261.25 28.9901C263.07 29.7901 264.7 30.9201 266.07 32.3701" fill="white"/>
<path d="M333.75 26.3C329.35 21.53 323.11 18.97 316.68 18.91C312.96 18.96 309.33 19.78 306.07 21.5C304.55 22.3 303.12 23.29 301.84 24.43C301.58 24.66 301.32 24.9 301.07 25.14V0H291.85V67.91H300.15L300.47 62.48C300.79 62.8 301.11 63.1 301.45 63.4C302.75 64.56 304.19 65.58 305.74 66.42C307.33 67.28 309.03 67.96 310.79 68.44C312.64 68.94 314.55 69.2 316.45 69.2H316.76C323.15 69.2 329.3 66.52 333.68 61.81C335.84 59.47 337.51 56.78 338.65 53.81C339.86 50.68 340.46 47.39 340.44 44.03C340.47 40.69 339.88 37.41 338.68 34.28C337.55 31.32 335.89 28.64 333.75 26.3ZM331.23 44.01V44.84C331.16 46.81 330.75 48.74 330.03 50.58C329.28 52.51 328.17 54.23 326.75 55.72C325.37 57.16 323.74 58.3 321.92 59.1C316.26 61.57 309.56 60.21 305.28 55.75C303.87 54.25 302.77 52.51 302.02 50.59C300.41 46.37 300.41 41.72 302.02 37.5C302.77 35.58 303.88 33.85 305.29 32.37C306.68 30.93 308.3 29.79 310.12 28.98C312 28.17 314.02 27.76 316.05 27.76C318.08 27.76 320.08 28.17 321.96 28.98C323.78 29.79 325.4 30.93 326.77 32.36C328.18 33.85 329.28 35.58 330.03 37.51C330.85 39.59 331.25 41.78 331.23 44.01Z" fill="white"/>
<path d="M386.53 25.61C386.22 25.3 385.9 24.99 385.58 24.7C384.28 23.53 382.84 22.51 381.31 21.68C379.71 20.82 378.02 20.14 376.27 19.66C374.39 19.15 372.45 18.84 370.52 18.91C364.02 18.86 357.77 21.53 353.33 26.29C351.18 28.62 349.51 31.3 348.38 34.27C347.18 37.39 346.59 40.67 346.61 44.02C346.59 47.37 347.18 50.66 348.37 53.79C349.5 56.77 351.17 59.45 353.33 61.78C355.49 64.08 358.04 65.88 360.9 67.16C363.86 68.47 367 69.13 370.2 69.13H370.45C372.35 69.16 374.3 68.9 376.17 68.4C379.62 67.49 382.85 65.74 385.51 63.37C385.84 63.07 386.17 62.76 386.49 62.44L386.84 67.9H395.14V20.14H386.84L386.52 25.61H386.53ZM381.74 32.36C383.15 33.85 384.26 35.59 385.03 37.51C385.86 39.59 386.27 41.77 386.25 44.03C386.27 46.28 385.87 48.48 385.05 50.58C384.29 52.51 383.19 54.24 381.77 55.74C380.39 57.19 378.77 58.33 376.95 59.12C375.08 59.94 373.08 60.31 371.02 60.33C368.99 60.29 367.01 59.93 365.13 59.1C363.31 58.3 361.68 57.16 360.31 55.72C358.9 54.23 357.8 52.5 357.05 50.58C356.23 48.49 355.82 46.28 355.85 44.03V44C355.83 41.76 356.24 39.58 357.06 37.5C357.81 35.58 358.9 33.84 360.3 32.35C361.67 30.9 363.29 29.77 365.1 28.98C368.86 27.35 373.18 27.35 376.94 28.98C378.76 29.78 380.39 30.91 381.76 32.36" fill="white"/>
<path d="M439.51 45.1599C438.58 44.1299 437.48 43.2799 436.27 42.6199C435.08 41.9699 433.83 41.4299 432.55 40.9999C431.26 40.5699 429.93 40.2199 428.57 39.9799C427.26 39.7399 425.99 39.5299 424.69 39.3399C422.93 39.1799 421.16 38.9199 419.41 38.5699C418.2 38.3399 417.03 37.9499 415.91 37.3899C415.2 37.0399 414.58 36.5099 414.16 35.9199C413.76 35.2999 413.57 34.5799 413.59 33.7899C413.59 32.9999 413.75 32.2299 414.05 31.4999C414.37 30.7399 414.88 30.0699 415.5 29.5499C416.35 28.8599 417.3 28.3499 418.34 28.0499C419.83 27.6099 421.36 27.3999 422.96 27.4499C424.12 27.4599 425.32 27.5899 426.48 27.9199C427.43 28.1899 428.31 28.6199 429.11 29.1999C429.78 29.6899 430.35 30.3399 430.74 31.0599C431.14 31.7899 431.36 32.6199 431.4 33.4399L431.46 34.8099H440.6L440.62 33.3999C440.68 29.3399 438.92 25.5399 435.81 22.9499C434.19 21.6199 432.36 20.6099 430.37 19.9599C428.1 19.2199 425.74 18.8899 423.41 18.8999C420.5 18.8099 417.61 19.2199 414.82 20.0599C412.62 20.7299 410.62 21.8299 408.86 23.3299C407.35 24.6499 406.18 26.3399 405.45 28.2199C404.76 30.0299 404.42 31.9299 404.43 33.7999C404.32 36.1299 404.9 38.4199 406.13 40.4699C407.19 42.0899 408.65 43.4599 410.34 44.4099C412.01 45.3499 413.82 46.0399 415.69 46.4399C417.52 46.8399 419.3 47.1499 420.91 47.3599C422.97 47.6899 424.75 48.0299 426.37 48.3999C427.72 48.6899 429.03 49.1499 430.27 49.7499C431.13 50.1599 431.88 50.7799 432.43 51.4899C432.92 52.1999 433.18 53.0699 433.14 53.9999C433.16 55.8499 432.21 57.5999 430.6 58.6099C428.74 59.8899 425.8 60.5399 421.84 60.5399C420.54 60.5099 419.29 60.3399 418.06 59.9299C416.95 59.5599 415.9 59.0099 414.95 58.3099C414.13 57.6999 413.45 56.9499 412.92 56.0699C412.47 55.3199 412.22 54.4699 412.2 53.5899L412.16 52.2099L403.09 52.1399V53.5899C403.12 55.5499 403.58 57.5299 404.42 59.2799C405.32 61.1899 406.56 62.8699 408.13 64.2799C409.84 65.8099 411.8 66.9999 413.95 67.8199C416.32 68.7199 418.8 69.1699 421.3 69.1699C421.41 69.1699 421.52 69.1699 421.63 69.1699C424.51 69.2199 427.38 68.8799 430.18 68.1999C432.56 67.6399 434.79 66.6499 436.81 65.2499C438.61 63.9799 440.1 62.2699 441.12 60.2699C442.12 58.1899 442.63 55.8699 442.58 53.6099C442.62 51.9599 442.34 50.3399 441.76 48.7699C441.24 47.4299 440.5 46.2199 439.54 45.1499" fill="white"/>
<path d="M99 0V9.97H119.73V69.19H129.79V9.97H150.52V0H99Z" fill="white"/>
<path d="M187.59 34.2C186.78 32.18 185.89 30.71 185.43 29.98C184.21 28.06 183.01 26.76 182.49 26.22C180.28 23.92 177.69 22.12 174.77 20.85C168.66 18.25 161.65 18.24 155.53 20.85C152.62 22.13 150.02 23.94 147.81 26.24C145.61 28.56 143.89 31.24 142.71 34.21C141.47 37.33 140.85 40.61 140.88 43.97C140.86 47.34 141.47 50.64 142.71 53.76C143.89 56.75 145.6 59.44 147.82 61.76C150.02 64.06 152.62 65.88 155.55 67.16C158.61 68.47 161.88 69.12 165.16 69.12C167.68 69.12 170.21 68.73 172.66 67.95C174.93 67.2 177.08 66.13 179.05 64.74C180.95 63.4 182.64 61.78 184.06 59.93C185.45 58.13 186.59 56.15 187.45 54.04L188.25 52.08H178.33L177.93 52.85C177.33 53.99 176.59 55.06 175.71 56.01C174.84 56.95 173.86 57.77 172.78 58.43C171.67 59.11 170.47 59.62 169.23 59.97C167.94 60.33 166.6 60.52 165.25 60.52C163.41 60.52 161.6 60.19 159.88 59.49C158.15 58.81 156.58 57.83 155.22 56.59C153.78 55.28 152.61 53.74 151.73 52.01C151 50.59 150.49 49.09 150.2 47.53H189.17C189.25 47.04 189.34 46.42 189.4 45.7C189.42 45.42 189.49 44.51 189.47 43.3C189.45 42.06 189.34 41.06 189.26 40.43C189.24 40.25 189.16 39.66 189.03 38.97C188.8 37.78 188.4 36.11 187.63 34.19L187.59 34.2ZM150.36 39.61C150.68 38.23 151.16 36.9 151.81 35.63C152.65 33.98 153.75 32.5 155.1 31.25C156.44 30.02 157.96 29.05 159.64 28.37C161.41 27.66 163.26 27.28 165.17 27.33H165.19C168.92 27.33 172.4 28.7 175.08 31.26C176.41 32.54 177.51 34.03 178.35 35.69C178.99 36.94 179.47 38.26 179.79 39.62H150.37L150.36 39.61Z" fill="white"/>
<path d="M39.64 0L0 69.21H15.85L39.64 28.03V0Z" fill="white"/>
<path d="M493.62 34.2C492.81 32.18 491.92 30.71 491.46 29.98C490.24 28.06 489.04 26.76 488.52 26.22C486.31 23.92 483.72 22.12 480.8 20.85C474.69 18.25 467.68 18.24 461.56 20.85C458.65 22.13 456.05 23.94 453.84 26.24C451.64 28.56 449.92 31.24 448.74 34.21C447.5 37.33 446.88 40.61 446.91 43.97C446.89 47.34 447.5 50.64 448.74 53.76C449.92 56.75 451.63 59.44 453.85 61.76C456.05 64.06 458.65 65.88 461.58 67.16C464.64 68.47 467.91 69.12 471.19 69.12C473.71 69.12 476.24 68.73 478.69 67.95C480.96 67.2 483.11 66.13 485.08 64.74C486.98 63.4 488.67 61.78 490.09 59.93C491.48 58.13 492.62 56.15 493.48 54.04L494.28 52.08H484.36L483.96 52.85C483.36 53.99 482.62 55.06 481.74 56.01C480.87 56.95 479.89 57.77 478.81 58.43C477.7 59.11 476.5 59.62 475.26 59.97C473.97 60.33 472.63 60.52 471.28 60.52C469.44 60.52 467.63 60.19 465.91 59.49C464.18 58.81 462.61 57.83 461.25 56.59C459.81 55.28 458.64 53.74 457.76 52.01C457.03 50.59 456.52 49.09 456.23 47.53H495.2C495.28 47.04 495.37 46.42 495.43 45.7C495.45 45.42 495.52 44.51 495.5 43.3C495.48 42.06 495.37 41.06 495.29 40.43C495.27 40.25 495.19 39.66 495.06 38.97C494.83 37.78 494.43 36.11 493.66 34.19L493.62 34.2ZM456.39 39.61C456.71 38.23 457.19 36.9 457.84 35.63C458.68 33.98 459.78 32.5 461.13 31.25C462.47 30.02 463.99 29.05 465.67 28.37C467.44 27.66 469.29 27.28 471.2 27.33H471.22C474.95 27.33 478.43 28.7 481.11 31.26C482.44 32.54 483.54 34.03 484.38 35.69C485.02 36.94 485.5 38.26 485.82 39.62H456.4L456.39 39.61Z" fill="white"/>
<path d="M60.81 69.2099H26.71L43.76 39.6799L60.81 69.2099Z" fill="white"/>
<path d="M71.68 69.21H87.53L58.6 19.24L50.54 33.27L71.68 69.21Z" fill="white"/>
<path d="M230.004 125V87.1818H254.6V92.9247H236.855V103.192H253.326V108.935H236.855V119.257H254.748V125H230.004ZM270.496 125.572C268.699 125.572 267.08 125.252 265.64 124.612C264.212 123.96 263.079 123 262.242 121.732C261.417 120.464 261.005 118.9 261.005 117.041C261.005 115.441 261.3 114.117 261.891 113.071C262.482 112.025 263.288 111.188 264.31 110.56C265.332 109.932 266.483 109.458 267.763 109.138C269.056 108.805 270.392 108.565 271.77 108.418C273.432 108.245 274.78 108.091 275.814 107.956C276.849 107.808 277.599 107.587 278.067 107.291C278.547 106.983 278.787 106.509 278.787 105.869V105.759C278.787 104.367 278.375 103.29 277.55 102.527C276.725 101.764 275.537 101.382 273.986 101.382C272.349 101.382 271.05 101.739 270.09 102.453C269.142 103.167 268.502 104.01 268.17 104.983L261.928 104.097C262.421 102.373 263.233 100.933 264.366 99.7756C265.498 98.6061 266.883 97.732 268.52 97.1534C270.158 96.5625 271.967 96.267 273.949 96.267C275.316 96.267 276.676 96.4271 278.03 96.7472C279.385 97.0672 280.622 97.5966 281.742 98.3352C282.862 99.0616 283.761 100.053 284.438 101.308C285.127 102.564 285.472 104.134 285.472 106.017V125H279.046V121.104H278.824C278.418 121.892 277.846 122.63 277.107 123.32C276.381 123.997 275.464 124.545 274.356 124.963C273.26 125.369 271.974 125.572 270.496 125.572ZM272.232 120.661C273.574 120.661 274.737 120.396 275.722 119.866C276.707 119.325 277.464 118.611 277.993 117.724C278.535 116.838 278.806 115.872 278.806 114.825V111.483C278.597 111.655 278.24 111.815 277.735 111.963C277.242 112.111 276.689 112.24 276.073 112.351C275.457 112.462 274.848 112.56 274.245 112.646C273.642 112.732 273.118 112.806 272.675 112.868C271.678 113.003 270.786 113.225 269.998 113.533C269.21 113.84 268.588 114.271 268.133 114.825C267.677 115.367 267.449 116.069 267.449 116.93C267.449 118.161 267.899 119.091 268.797 119.719C269.696 120.347 270.841 120.661 272.232 120.661ZM293.234 125V96.6364H299.715V101.364H300.011C300.528 99.7263 301.414 98.4645 302.67 97.5781C303.938 96.6795 305.384 96.2301 307.009 96.2301C307.379 96.2301 307.791 96.2486 308.247 96.2855C308.714 96.3101 309.102 96.3532 309.41 96.4148V102.564C309.127 102.465 308.677 102.379 308.062 102.305C307.459 102.219 306.874 102.176 306.308 102.176C305.089 102.176 303.993 102.441 303.021 102.97C302.06 103.487 301.303 104.207 300.749 105.131C300.195 106.054 299.918 107.119 299.918 108.325V125H293.234ZM330.578 96.6364V101.807H314.272V96.6364H330.578ZM318.298 89.8409H324.983V116.469C324.983 117.367 325.118 118.057 325.389 118.537C325.672 119.005 326.041 119.325 326.497 119.497C326.952 119.67 327.457 119.756 328.011 119.756C328.429 119.756 328.811 119.725 329.156 119.663C329.513 119.602 329.784 119.546 329.968 119.497L331.095 124.723C330.738 124.846 330.227 124.982 329.562 125.129C328.91 125.277 328.109 125.363 327.162 125.388C325.487 125.437 323.979 125.185 322.637 124.631C321.295 124.064 320.231 123.19 319.443 122.009C318.667 120.827 318.286 119.349 318.298 117.577V89.8409ZM344.502 108.381V125H337.818V87.1818H344.355V101.456H344.687C345.352 99.8556 346.38 98.5937 347.771 97.6705C349.174 96.7348 350.959 96.267 353.126 96.267C355.096 96.267 356.813 96.6795 358.278 97.5043C359.743 98.3291 360.875 99.5355 361.676 101.124C362.488 102.712 362.894 104.651 362.894 106.94V125H356.21V107.974C356.21 106.066 355.717 104.583 354.732 103.524C353.76 102.453 352.393 101.918 350.633 101.918C349.451 101.918 348.392 102.176 347.457 102.693C346.534 103.198 345.807 103.93 345.278 104.891C344.761 105.851 344.502 107.014 344.502 108.381ZM376.602 125L368.588 96.6364H375.402L380.387 116.58H380.646L385.743 96.6364H392.483L397.579 116.469H397.856L402.768 96.6364H409.601L401.568 125H394.606L389.288 105.832H388.9L383.582 125H376.602ZM426.867 125.554C424.098 125.554 421.697 124.945 419.666 123.726C417.634 122.507 416.059 120.802 414.938 118.611C413.831 116.42 413.277 113.859 413.277 110.929C413.277 107.999 413.831 105.432 414.938 103.229C416.059 101.025 417.634 99.3139 419.666 98.0952C421.697 96.8764 424.098 96.267 426.867 96.267C429.637 96.267 432.038 96.8764 434.069 98.0952C436.1 99.3139 437.67 101.025 438.778 103.229C439.898 105.432 440.458 107.999 440.458 110.929C440.458 113.859 439.898 116.42 438.778 118.611C437.67 120.802 436.1 122.507 434.069 123.726C432.038 124.945 429.637 125.554 426.867 125.554ZM426.904 120.199C428.406 120.199 429.662 119.786 430.671 118.962C431.681 118.125 432.432 117.004 432.924 115.601C433.429 114.197 433.681 112.634 433.681 110.911C433.681 109.175 433.429 107.605 432.924 106.202C432.432 104.786 431.681 103.66 430.671 102.822C429.662 101.985 428.406 101.567 426.904 101.567C425.366 101.567 424.085 101.985 423.063 102.822C422.054 103.66 421.297 104.786 420.792 106.202C420.3 107.605 420.054 109.175 420.054 110.911C420.054 112.634 420.3 114.197 420.792 115.601C421.297 117.004 422.054 118.125 423.063 118.962C424.085 119.786 425.366 120.199 426.904 120.199ZM447.172 125V96.6364H453.654V101.364H453.949C454.466 99.7263 455.352 98.4645 456.608 97.5781C457.876 96.6795 459.323 96.2301 460.948 96.2301C461.317 96.2301 461.729 96.2486 462.185 96.2855C462.653 96.3101 463.04 96.3532 463.348 96.4148V102.564C463.065 102.465 462.616 102.379 462 102.305C461.397 102.219 460.812 102.176 460.246 102.176C459.027 102.176 457.931 102.441 456.959 102.97C455.999 103.487 455.242 104.207 454.688 105.131C454.134 106.054 453.857 107.119 453.857 108.325V125H447.172ZM474.923 116.099L474.904 108.03H475.975L486.169 96.6364H493.98L481.441 110.597H480.056L474.923 116.099ZM468.829 125V87.1818H475.514V125H468.829ZM486.63 125L477.397 112.092L481.903 107.384L494.626 125H486.63Z" fill="white"/>
</g>
<defs>
<clipPath id="clip0_5951_45269">
<rect width="495.71" height="125.16" fill="white"/>
</clipPath>
</defs>
</svg>
